<svg width="156" height="100" viewBox="0 0 156 100" fill="none" xmlns="http://www.w3.org/2000/svg">
<g filter="url(#filter0_i_2_444)">
<ellipse cx="71" cy="32" rx="17" ry="14" fill="#FFF700"/>
<path d="M120 35H117V75H120V35Z" fill="#582F0E"/>
<path d="M118.495 27L121.495 32.5L124.99 37.5H112L115.495 32.5L118.495 27Z" fill="#4F772D"/>
<path d="M106 41H103V72H106V41Z" fill="#582F0E"/>
<path d="M106 37H103V77H106V37Z" fill="#582F0E"/>
<rect width="3" height="40" transform="matrix(-1 0 0 1 132 35)" fill="#582F0E"/>
<path d="M130.5 37L133.5 42.5L136.995 47.5H124.005L127.5 42.5L130.5 37Z" fill="#4F772D"/>
<path d="M130.495 30L133.495 35.5L136.99 40.5H124L127.495 35.5L130.495 30Z" fill="#4F772D"/>
<path d="M130.495 44L133.495 49.5L136.99 54.5H124L127.495 49.5L130.495 44Z" fill="#4F772D"/>
<path d="M104.495 21L107.495 26.5L110.99 31.5H98L101.495 26.5L104.495 21Z" fill="#4F772D"/>
<path d="M104.495 32L107.495 37.5L110.99 42.5H98L101.495 37.5L104.495 32Z" fill="#4F772D"/>
<path d="M104.495 26L107.495 31.5L110.99 36.5H98L101.495 31.5L104.495 26Z" fill="#4F772D"/>
<path d="M130.495 51L133.495 56.5L136.99 61.5H124L127.495 56.5L130.495 51Z" fill="#4F772D"/>
<path d="M48.5 51H45.5V76H48.5V51Z" fill="#582F0E"/>
<path d="M47.5 31L50.5 36.5L53.9952 41.5H41.0048L44.5 36.5L47.5 31Z" fill="#4F772D"/>
<path d="M47.4952 38L50.4952 43.5L53.9904 48.5H41L44.4952 43.5L47.4952 38Z" fill="#4F772D"/>
<path d="M47.4952 45L50.4952 50.5L53.9904 55.5H41L44.4952 50.5L47.4952 45Z" fill="#4F772D"/>
<path d="M118.495 18L121.495 23.5L124.99 28.5H112L115.495 23.5L118.495 18Z" fill="#4F772D"/>
<path d="M118.495 23L121.495 28.5L124.99 33.5H112L115.495 28.5L118.495 23Z" fill="#4F772D"/>
<rect width="3" height="40" transform="matrix(-1 0 0 1 31 35)" fill="#582F0E"/>
<g filter="url(#filter1_d_2_444)">
<path d="M24 78H141L114.5 38.2963L110 49.2148L82 11L67.5 38.2963L65 33.8296L45.5 64.1037L39 53.1852L31.5 65.5926L24 78Z" fill="#D3E2FF"/>
<path d="M24 78H141L114.5 38.2963L110 49.2148L82 11L67.5 38.2963L65 33.8296L45.5 64.1037L39 53.1852L31.5 65.5926L24 78Z" stroke="#4F772D" stroke-linejoin="round"/>
</g>
<path d="M29.5 32L32.5 37.5L35.9952 42.5H23.0048L26.5 37.5L29.5 32Z" fill="#4F772D"/>
<path d="M29.4952 39L32.4952 44.5L35.9904 49.5H23L26.4952 44.5L29.4952 39Z" fill="#4F772D"/>
<path d="M29.4952 46L32.4952 51.5L35.9904 56.5H23L26.4952 51.5L29.4952 46Z" fill="#4F772D"/>
<rect x="74.3819" y="9" width="2" height="6.96413" transform="rotate(20 74.3819 9)" fill="#FFF700"/>
<rect x="46" y="25.841" width="2" height="6.96413" transform="rotate(-67 46 25.841)" fill="#FFF700"/>
<rect x="50" y="18.4142" width="2" height="6.96413" transform="rotate(-45 50 18.4142)" fill="#FFF700"/>
<rect x="56" y="13" width="2" height="6.96413" transform="rotate(-30 56 13)" fill="#FFF700"/>
<rect x="65" y="9.34729" width="2" height="6.96413" transform="rotate(-10 65 9.34729)" fill="#FFF700"/>
<path d="M26.5 74L31.5 72L33.5 74L36 70.5L39 73L42 70.5L45.5 74L46.5 73L49.5 75V73L52.5 75L56 70.5L58 73L63 69L65 73L68.5 70.5L70.5 74L72 70.5L75.5 72L77.5 75L81 70.5L82 74L84.5 70.5L87.5 74V69L90 74L92 70.5L95 74L96 70.5L98.5 74L100.5 70L107 74L108 70.5L109 72L112.5 70.5L113.5 73H115.5L117.5 69L120.5 72L122 70.5L124 72H126H128.5L130.5 70L132.5 72L133.5 70.5L135.5 69.5" stroke="#4F772D" stroke-linecap="round" stroke-linejoin="round"/>
<path d="M27.5408 75.1271C27.4033 75.1271 27.3038 75.0321 27.1607 75.0321C26.9865 75.0321 26.8123 75.0321 26.6381 75.0321C26.4366 75.0321 26.4006 75.049 26.4006 74.842C26.4006 74.6588 26.4419 74.5482 26.6276 74.4725C26.9808 74.3286 27.262 74.3194 27.6358 74.3194C27.8173 74.3194 27.9896 74.3452 28.1478 74.2455C28.4298 74.068 28.7148 73.8987 29.0135 73.7493C29.3935 73.5594 29.8224 73.3169 30.2488 73.2743C30.3975 73.2594 30.5364 73.1395 30.6763 73.1317C30.8931 73.1197 30.4714 73.098 30.5813 73.0842C31.1263 73.0161 31.9798 72.8921 32.3761 73.3323C32.7546 73.7529 33.1573 74.2719 33.7644 74.2719C34.2424 74.2719 34.5011 74.2346 34.8782 73.8919C35.1878 73.6104 35.5224 73.3431 35.5697 72.8942C35.5848 72.7502 35.7315 72.0046 35.4746 72.2766C35.2962 72.4656 35.221 72.784 35.1051 73.0156C34.9705 73.2848 34.8376 73.5135 34.667 73.7599C34.5683 73.9025 34.311 74.1702 34.5562 73.8338C34.9152 73.3411 35.2926 72.8285 35.6858 72.3611C35.8694 72.1428 36.0583 71.9246 36.1503 71.6484C36.1615 71.6149 36.297 71.3147 36.3192 71.337C36.4419 71.4596 36.445 71.636 36.6148 71.7646C36.8549 71.9462 37.149 72.1058 37.3644 72.3135C37.6497 72.5887 37.7567 72.7911 37.9081 73.1317C37.9596 73.2477 38.0401 73.3268 38.0401 73.4643C38.0401 73.8104 37.3571 73.7493 37.1269 73.7493C36.8872 73.7493 36.9088 73.5306 36.958 73.3218C36.9954 73.1628 37.0548 73.0909 36.8524 73.2162C36.6581 73.3365 36.4821 73.4538 36.2664 73.5382C35.8959 73.6832 36.2051 72.9519 36.2823 72.8361C36.3085 72.7968 36.5128 72.5767 36.3879 72.6567C36.2997 72.7131 36.1838 72.749 36.1028 72.8097C35.9612 72.916 36.3774 72.5853 36.5251 72.4877C36.5759 72.4542 36.6959 72.3241 36.7574 72.3241C36.8525 72.3241 36.7961 72.7676 36.8049 72.8467C36.8274 73.0492 37.5901 72.7459 37.6495 72.8573C37.7713 73.0857 36.9801 73.743 36.8418 73.8813C36.4533 74.2698 35.9588 74.6011 35.501 74.9001C34.8783 75.3069 32.9743 76.4674 33.5796 76.035C34.0501 75.6989 34.5398 75.1744 35.084 74.9476C35.6113 74.7279 34.0312 75.3911 33.5004 75.6022C33.4542 75.6206 33.0135 75.818 33.0465 75.7394C33.208 75.3536 33.6759 75.0407 33.9755 74.7734C34.343 74.4456 34.7206 74.1134 35.0735 73.7705C35.1801 73.6668 35.5641 73.467 35.4166 73.4854C35.3369 73.4954 34.7462 73.9288 34.7462 73.9288C34.9024 74.085 35.716 73.662 35.9392 73.6543C36.3083 73.6416 35.8005 73.8991 35.9128 74.0238C36.0486 74.1748 36.4901 73.9242 35.9392 74.235C35.8208 74.3017 34.7955 75.102 34.7251 75.0215C34.6822 74.9725 34.8175 74.8704 34.8359 74.842C34.8856 74.7653 34.1524 74.8853 34.1339 74.8895C33.7985 74.9653 33.4647 75.0321 33.1204 75.0321C32.9628 75.0321 33.0223 74.9841 32.9356 74.9476C32.7108 74.853 32.17 75.2048 31.9749 75.2749C31.7463 75.357 31.3645 75.4814 31.1145 75.4596C31.1107 75.4593 31.7472 74.9482 31.8376 74.8843C32.039 74.7419 32.2965 74.6681 32.4816 74.5095C32.6165 74.3939 32.3751 74.4926 32.318 74.52C32.1517 74.6 31.9888 74.695 31.8271 74.784C31.5232 74.9511 32.3392 74.3151 32.6136 74.103C32.7873 73.9688 32.1736 74.1475 31.9643 74.2139C31.8431 74.2523 31.723 74.2869 31.6001 74.3194C31.5785 74.3252 31.3513 74.3933 31.3599 74.3775C31.451 74.2105 31.7112 74.1069 31.8588 73.9922C31.9005 73.9597 32.0915 73.8072 31.9063 73.8998C31.2568 74.2245 29.4915 75.5051 30.0534 75.0453C30.3484 74.804 31.266 74.1253 30.9851 74.3828C30.6761 74.6661 30.2884 74.8529 29.9505 75.0981C29.7624 75.2345 29.5149 75.5262 29.2801 75.5731C29.1763 75.5939 29.4167 75.4106 29.4939 75.3382C29.6592 75.1833 29.8273 75.0306 29.998 74.8816C30.0423 74.843 30.7399 74.2618 30.7318 74.2482C30.63 74.0786 29.9521 74.3134 29.8212 74.367C29.7757 74.3855 29.3786 74.5813 29.3303 74.5491C29.2931 74.5243 30.0908 73.8036 30.1405 73.7573C30.295 73.6135 30.6642 73.3974 30.7713 73.2188C30.928 72.9577 30.2668 73.56 30.0112 73.7256C29.8011 73.8618 29.6085 74.0184 29.3989 74.1532C28.9196 74.4613 30.387 73.5632 30.9323 73.3983C31.0453 73.3642 31.7665 73.1151 31.579 73.4432C31.4298 73.7042 31.8938 73.3746 31.9775 73.3746C32.0244 73.3746 31.9255 73.455 31.8878 73.4828C31.626 73.6757 31.3802 73.8891 31.1224 74.0872C30.8022 74.3332 30.4899 74.5892 30.1669 74.8315C30.102 74.8802 29.9637 74.9798 29.9637 74.842C29.9637 74.59 29.8926 74.6578 29.6127 74.7602C29.1499 74.9295 28.6629 75.1157 28.2244 75.3409C28.2002 75.3533 27.8051 75.5482 27.8813 75.3831C27.923 75.2926 28.2628 75.0215 28.1769 75.0347C27.8303 75.088 27.5083 75.3906 27.1871 75.5283C26.9681 75.6221 27.484 75.1289 27.7018 75.0321C27.7234 75.0225 27.4276 75.299 27.3534 75.3593C27.1676 75.5103 26.9689 75.6936 26.7622 75.8133C26.4848 75.9739 27.0109 75.5819 27.0868 75.5335C27.3539 75.3636 26.5869 75.9272 26.3082 76.0772C26.0154 76.2349 26.2527 76.0508 26.0232 76.3808C25.9468 76.4906 25.7408 76.7996 25.7408 76.6658C25.7408 76.4794 26.0163 76.1913 26.1314 76.064C26.2195 75.9667 26.4298 75.6334 26.3425 75.7315C25.928 76.1979 25.4433 76.6069 25.0017 77.0485C24.6777 77.3726 25.1126 77.36 25.3792 77.36C25.6541 77.36 26.1406 77.4375 26.3056 77.1488C26.4123 76.962 26.7786 76.7994 26.9469 76.6685C27.0384 76.5973 27.2699 76.3398 27.2056 76.4362C27.1155 76.5714 26.9619 76.6326 26.8282 76.7186C26.7166 76.7903 26.5431 77.0079 26.5431 77.1462C26.5431 77.3291 26.7273 77.3125 26.8757 77.3125C27.4259 77.3125 27.8258 76.8956 27.8258 76.3385C27.8258 76.2256 27.8542 76.0695 27.8232 75.9611C27.8126 75.9239 27.5659 76.144 27.5223 76.1696C27.3925 76.246 27.2662 76.3312 27.137 76.4098C27.0181 76.4821 26.6912 76.6233 26.8994 76.7899C27.0675 76.9243 27.0897 76.9324 27.3296 76.9324C27.8392 76.9324 28.4872 76.4109 28.6572 75.9347C28.7139 75.7761 28.6698 76.0402 28.652 76.0799C28.5543 76.2968 28.3856 76.5151 28.2534 76.7133C28.1689 76.8401 28.0584 77.0789 27.9446 77.1699C27.828 77.2633 27.9921 77.1923 28.0396 77.1699C28.4337 76.9845 28.8486 76.7093 29.2247 76.4837C29.4631 76.3406 29.8936 76.154 29.4675 76.5233C29.2456 76.7157 28.7566 76.8029 28.4725 76.7397C28.1973 76.6786 28.554 76.0866 28.6124 76.006C28.7441 75.824 29.1477 75.4412 29.23 75.8291C29.3895 76.5814 29.2473 77.1454 28.4303 77.3758C28.2544 77.4254 27.3569 77.4132 27.6701 77.0037C27.9133 76.6857 28.3702 76.5523 28.7496 76.5523C29.2355 76.5523 28.4505 77.627 28.3405 77.7216C28.2393 77.8086 27.8495 77.881 27.6701 77.7216C27.4836 77.5558 28.0494 77.3792 28.1109 77.3177C28.5842 76.8444 29.1586 76.4666 29.771 76.1987C30.0159 76.0915 29.7161 76.5959 29.6575 76.6711C29.5925 76.7547 29.8177 76.297 29.8687 76.2303C30.0658 75.9726 30.359 75.7558 30.6103 75.552C30.7367 75.4496 31.1372 75.2274 30.9746 75.2274C30.8118 75.2274 30.6297 75.3404 30.4916 75.4095C30.394 75.4583 30.1497 75.5041 30.0825 75.5863C29.9337 75.7682 29.8643 76.0893 29.7974 76.3121C29.7651 76.42 29.5767 76.808 29.7526 76.84C29.9506 76.876 30.1162 76.9324 30.32 76.9324C30.6764 76.9324 30.368 77.1438 30.1801 77.2122C29.4469 77.4788 32.4957 75.1328 31.8535 75.5758C31.3707 75.9087 30.9495 76.3651 30.4018 76.5998C30.3695 76.6137 30.1314 76.7623 30.2804 76.7318C30.664 76.6533 31.0317 76.4287 31.3731 76.2462C31.5885 76.131 31.8327 75.9828 32.0805 75.9453C32.1472 75.9352 31.6261 76.6229 31.5737 76.6896C31.4663 76.8263 31.0998 77.1053 31.0617 77.2808C31.0581 77.2972 31.7266 76.9256 31.8112 76.8638C32.1401 76.6234 32.478 76.3943 32.8089 76.1564C32.9021 76.0895 33.1984 75.9221 33.0887 75.9558C32.897 76.0148 32.6829 76.2174 32.508 76.3253C32.3225 76.4399 32.1304 76.5349 31.9696 76.6843C31.8108 76.8317 32.0429 76.5925 32.1016 76.5523C32.2553 76.447 32.4082 76.3396 32.5661 76.2409C32.845 76.0665 32.1344 76.7386 31.9432 77.0063C31.6901 77.3607 32.7275 76.9856 32.7984 76.9693C33.0741 76.9061 32.9178 77.0188 32.7878 77.1488C32.7385 77.1981 32.5661 77.3038 32.6347 77.2913C32.7308 77.2739 32.883 77.1505 32.9567 77.1066C33.2721 76.9186 33.5822 76.722 33.8858 76.5154C34.1765 76.3175 34.4762 76.1273 34.7515 75.9083C34.9358 75.7617 34.6076 75.8829 34.5456 75.9242C34.3582 76.0491 34.1545 76.1529 33.9544 76.2567C33.7074 76.3848 33.7558 76.4343 34.0019 76.3148C34.2626 76.1882 34.5012 76.0571 34.7356 75.8872C34.8507 75.8038 34.9672 75.762 35.0576 75.6602C35.1783 75.5245 34.7626 75.8722 34.6142 75.977C34.2376 76.243 33.833 76.481 33.4688 76.7635C33.4385 76.7869 33.1301 77.0079 33.2734 76.9693C33.9645 76.7833 34.6654 76.2856 35.2899 75.9558C35.7673 75.7037 36.2536 75.4631 36.7468 75.2432C36.7823 75.2274 37.1776 75.0605 37.0002 75.1588C36.485 75.4439 36.0422 75.8614 35.5485 76.1828C35.4265 76.2623 34.6188 76.8296 35.1104 76.5154C35.9627 75.9706 36.7838 75.3781 37.6389 74.8368C38.0296 74.5894 38.4284 74.338 38.7949 74.0555C38.8709 73.9969 38.8775 73.9858 38.7685 74.0397C38.5313 74.1569 38.295 74.2746 38.0612 74.3986C37.4312 74.7329 36.8218 75.1072 36.1767 75.4121C36.0251 75.4838 35.6147 75.7682 35.7333 75.6497C35.9999 75.3831 36.4187 75.1635 36.731 74.9529C36.9277 74.8202 37.5488 74.5491 37.3116 74.5412C37.0748 74.5333 36.7353 74.7706 36.5357 74.8684C36.2355 75.0156 35.932 75.1571 35.633 75.3066C35.274 75.4861 34.1859 75.993 34.5667 75.8661C35.7197 75.4818 36.7285 74.6797 37.8078 74.14C37.8647 74.1115 37.6733 74.1484 37.6231 74.1875C37.5795 74.2214 37.6946 74.0403 37.7075 74.0238C37.8851 73.7979 37.9618 73.7638 38.2301 73.6913C38.47 73.6264 38.6689 73.4751 38.8952 73.3798C39.1584 73.269 39.615 73.6513 39.7504 73.3957C39.8778 73.155 40.0339 72.8166 40.273 72.6672C40.4937 72.5293 40.7631 72.3591 40.9486 72.1921C41.1098 72.0471 41.267 71.9213 41.4237 71.7646C41.649 71.5393 41.8102 71.6024 42.0783 71.7435C42.6667 72.0531 43.0487 72.4563 43.4455 72.9523C43.5072 73.0295 43.5616 73.1793 43.6091 73.2743C43.6961 73.4483 43.8721 73.5388 43.968 73.7018C44.1284 73.9744 44.4167 74.2669 44.6437 74.4831C44.9368 74.7622 45.1188 74.908 45.1188 75.3171C45.1188 75.6825 44.7519 75.969 44.517 76.2039C44.2939 76.427 44.0646 76.5994 43.8097 76.7793C43.505 76.9944 43.1297 77.1459 42.849 77.3705C42.5732 77.5911 42.176 77.4678 41.8513 77.5606C41.3574 77.7017 40.7047 77.5975 40.1832 77.5975C39.6616 77.5975 39.1461 77.3241 38.6207 77.3125C38.3084 77.3055 38.0131 77.2174 37.6917 77.2174C37.2718 77.2174 36.8544 77.1313 36.4354 77.1224C35.7018 77.1068 35.0567 77.3052 34.345 77.4444C34.1783 77.477 33.9449 77.5093 33.7749 77.5025C33.5579 77.4938 34.108 77.0614 34.118 77.0538C34.8711 76.4853 35.6619 75.9819 36.4565 75.4755C37.1676 75.0223 37.8602 74.5167 38.6049 74.1189C38.8202 74.0038 39.0469 73.9131 39.2383 73.7599C39.9523 73.1888 37.8104 74.9021 37.0899 75.4649C36.8609 75.6438 36.6561 75.846 36.4512 76.0509C36.3106 76.1915 36.636 76.0558 36.6808 76.0324C36.7117 76.0163 36.9102 75.8941 36.8524 75.9215C36.5778 76.0516 36.3422 76.1624 36.0923 76.3359C36.0007 76.3995 35.7189 76.5026 35.6726 76.6183C35.6477 76.6806 35.8026 76.5842 35.8653 76.5602C36.2138 76.4272 36.549 76.259 36.8841 76.0957C37.4458 75.822 37.9874 75.5198 38.5257 75.2036C38.7169 75.0914 39.0058 74.8533 38.6551 75.1112C38.398 75.3003 38.1861 75.5475 37.9292 75.7368C37.9209 75.7429 37.7665 75.8526 37.8395 75.8371C38.2867 75.7422 38.7462 75.4903 39.1486 75.2854C39.8438 74.9315 40.4428 74.4789 41.0859 74.0502C41.3984 73.8419 40.6022 74.2406 40.5369 74.2746C40.1661 74.4676 39.7936 74.7815 39.4073 74.9318C39.2525 74.992 39.6326 74.6867 39.7583 74.5781C39.9781 74.3883 40.206 74.2076 40.4287 74.0212C40.7511 73.7515 41.1228 73.5289 41.4026 73.2109C41.5155 73.0827 41.5683 73.0085 41.3419 73.042C41.0878 73.0797 40.5677 73.3812 41.1017 73.0394C41.2904 72.9186 41.4583 72.7752 41.6375 72.6408C41.8393 72.4895 41.5071 72.6417 41.4475 72.6646C41.3237 72.7122 40.2183 73.3075 40.6055 72.7543C40.8491 72.4063 40.1095 73.0626 40.0671 73.0974C39.3577 73.6807 38.6638 74.2746 38.0322 74.9423C37.9339 75.0462 37.6821 75.2555 37.763 75.4306C37.8685 75.6594 38.782 75.5547 38.9691 75.5547C39.1703 75.5547 39.4727 75.5006 39.6712 75.5573C39.7111 75.5687 39.6088 75.6142 39.5709 75.6312C39.3919 75.7114 39.2121 75.7897 39.0272 75.8555C38.9697 75.876 38.5909 76.0539 38.568 75.9162C38.5004 75.5108 38.8419 75.0668 39.0562 74.7549C39.1331 74.6431 39.2256 74.401 39.3439 74.3221C39.3485 74.319 39.2376 74.3706 39.2595 74.3643C39.3457 74.3397 39.4178 74.2568 39.4864 74.2007C39.5298 74.1652 39.5428 74.1511 39.4785 74.2086C39.2552 74.4084 39.0131 74.5915 38.7817 74.7813C38.1672 75.2853 37.4544 75.7463 36.9316 76.3517C36.8412 76.4564 36.7922 76.4779 36.8075 76.6236C36.8568 77.0917 37.8141 76.5651 37.9979 76.4863C38.27 76.3697 38.5276 76.1939 38.7738 76.0297C39.007 75.8743 38.5782 76.1026 38.5204 76.1459C38.4872 76.1708 38.2484 76.3544 38.3014 76.3597C38.6761 76.3971 38.9659 76.2279 39.2964 76.0799C39.4788 75.9982 39.9748 75.7087 39.8586 75.8714C39.8087 75.9412 39.5916 76.0262 39.6738 76.0509C39.996 76.1475 40.5537 75.7745 40.8219 75.6576C41.0019 75.5792 41.5872 75.1666 41.7774 75.23C41.8604 75.2577 41.6272 75.32 41.5504 75.362C41.2848 75.5073 41.0356 75.681 40.7797 75.8423C40.7545 75.8583 40.4208 76.0403 40.5475 75.9981C40.7889 75.9176 40.9984 75.7212 41.2099 75.5837C41.3862 75.4691 40.4694 75.6322 40.3785 75.655C39.7593 75.8098 39.1594 76.0755 38.568 76.3121C37.9104 76.5752 38.8609 76.3404 39.0562 76.291C39.4508 76.1913 39.8532 76.0841 40.2545 76.0139C40.5315 75.9654 40.1234 76.2615 40.0592 76.3121C39.9962 76.3617 39.8515 76.4266 39.8137 76.5022C39.7758 76.578 40.243 76.5498 40.2466 76.5497C40.7316 76.5374 41.2204 76.4 41.6929 76.2963C42.0077 76.2272 41.5149 76.4725 41.4422 76.5286C41.2865 76.6487 40.7996 76.9729 40.9803 76.8954C41.4209 76.7066 41.8209 76.3777 42.2446 76.1485C42.2937 76.1219 42.831 75.7953 42.7012 75.8212C42.2331 75.9148 41.7527 76.154 41.363 76.4256C41.0292 76.6583 41.2472 76.5828 41.5319 76.5048C41.7154 76.4546 42.1812 76.2156 42.3712 76.2699C42.4825 76.3017 42.162 76.3687 42.0598 76.423C41.7276 76.5995 41.3961 76.7747 41.0595 76.9429C40.5577 77.1938 40.0641 77.4644 39.5419 77.6688C39.2446 77.7851 39.9407 77.4046 39.9985 77.3679C40.294 77.1802 40.5991 77.0076 40.9064 76.84C41.0069 76.7852 40.8417 76.9159 40.8193 76.9324C40.4922 77.1735 41.4534 76.9193 41.5187 76.9007C42.0139 76.7599 42.498 76.5935 42.9941 76.4573C43.0196 76.4503 43.4565 76.302 43.2581 76.3913C43.2001 76.4174 42.9114 76.5946 42.9255 76.5946C43.1231 76.5946 43.3523 76.4854 43.5194 76.3887C43.5891 76.3483 43.7591 76.2958 43.5774 76.3201C43.2107 76.369 42.8405 76.4603 42.4874 76.5682C42.2079 76.6536 42.7757 76.1885 42.8226 76.1432C43.0098 75.9621 43.4794 75.7034 43.5669 75.4412C43.5832 75.3922 43.3873 75.4637 43.3636 75.4834C43.2452 75.5821 43.8651 75.2018 43.8044 75.3435C43.7255 75.5277 44.1124 75.4616 44.0103 75.6787C43.9276 75.8544 43.675 76.0158 43.5326 76.1459C43.3083 76.3506 43.5534 76.1098 43.6249 76.0297C43.7478 75.8922 43.905 75.7888 44.0499 75.6761C44.1535 75.5955 43.8823 75.6478 43.8123 75.6523C43.617 75.6649 42.6637 75.9643 43.2528 75.5758C43.3564 75.5074 44.4098 75.1201 44.451 75.3673C44.4777 75.5271 44.2636 75.9554 44.2636 75.5309C44.2636 75.3822 44.2636 75.2335 44.2636 75.0849C44.2636 74.8921 44.1519 75.2382 44.1158 75.2986C43.9435 75.588 43.4595 76.4405 42.9994 76.3042C42.6845 76.2109 42.6126 75.6355 42.6035 75.3567C42.5855 74.8081 42.5581 74.5065 42.9888 74.1452C43.0958 74.0556 43.171 73.98 43.171 74.1584C43.171 74.6505 42.8892 75.1059 42.5903 75.4781C42.3816 75.738 42.0579 76.0876 41.7167 76.1459C40.8442 76.2948 41.3408 74.2811 41.4132 73.9895C41.4497 73.842 41.7982 72.2282 42.3369 72.5221C42.6237 72.6785 42.101 73.3534 42.0255 73.4617C41.8424 73.7241 41.5542 74.1625 41.2258 74.2719C41.1467 74.2983 41.1681 73.5481 41.1862 73.4326C41.2434 73.0676 41.4511 72.5853 41.751 72.3479C41.8508 72.2688 42.0308 72.1067 42.0308 72.3135C42.0308 73.1387 42.2668 73.9035 42.3132 74.7153C42.3163 74.7704 42.3479 74.9887 42.2868 75.0294C42.1091 75.1479 41.7712 75.0796 41.5742 75.0796C41.2914 75.0796 41.2213 75.1332 41.0067 75.3171C40.9469 75.3684 40.6055 75.72 40.6055 75.5784C40.6055 75.1493 41.1802 75.0446 41.5108 74.9344C41.8989 74.805 42.3008 74.7189 42.6853 74.5807C42.9119 74.4993 43.1353 74.3433 43.3795 74.3221C43.6944 74.2947 43.7278 74.4281 43.8097 74.7206C43.8523 74.8727 43.8692 74.9851 43.6909 75.0057C43.2786 75.0533 42.9726 74.3225 42.8067 74.0529C42.6519 73.8013 42.5004 73.5462 42.3897 73.2716C42.3359 73.1382 42.3018 72.9282 42.2023 72.8177C42.1785 72.7912 42.1875 73.1183 42.2023 73.1661C42.2953 73.4658 42.3648 73.7378 42.527 74.008C42.5642 74.0701 42.6959 74.334 42.6959 74.3194" stroke="#4F772D" stroke-linecap="round"/>
<path d="M28.1109 74.6995C28.2305 74.6995 28.3502 74.6995 28.4698 74.6995C28.5624 74.6995 28.6574 74.6934 28.7496 74.7021C28.8395 74.7107 28.8824 74.7852 28.966 74.7945C29.2242 74.8232 29.2946 74.993 29.4411 75.1482C29.6249 75.3428 29.7627 75.5798 29.9611 75.7658C30.2264 76.0145 30.5574 76.0686 30.8928 76.1723C31.3905 76.3261 31.6635 76.2461 32.128 76.0772C32.2757 76.0235 33.474 75.6838 33.474 75.5309C33.474 75.5099 32.7217 75.387 32.6242 75.3752C32.5106 75.3614 32.4028 75.3673 32.2916 75.3435C32.1627 75.3159 32.0549 75.5817 31.9854 75.6602C31.5983 76.0976 30.9515 76.4252 30.4309 76.6737C30.0938 76.8346 29.7533 76.9293 29.3936 77.0168C29.2174 77.0597 29.0056 77.1057 28.8473 77.1937C28.6913 77.2803 28.7513 77.3348 28.8499 77.4603C29.2582 77.9799 29.8425 77.5526 30.5 77.5C31.3611 77.4311 32.2422 77.9224 33.0781 77.7242C34.0482 77.4942 35.0164 77.2583 35.9867 77.03C36.3571 76.9429 36.735 76.8557 37.1005 76.7529C37.4085 76.6663 37.711 76.6737 38.0216 76.6236C38.3586 76.5692 38.9543 76.507 39.1222 76.8849C39.1644 76.9797 39.1002 77.1222 39.0166 77.1699C38.7519 77.3212 39.6298 77.0453 39.8823 76.8743C40.2562 76.6213 40.6857 76.4246 41.0067 76.1036C41.2791 75.8312 41.494 75.5387 41.7246 75.2353C41.9312 74.9634 42.2029 74.5982 42.3158 74.2719C42.3601 74.144 42.4129 73.8902 42.5296 73.7969C42.6872 73.6708 42.7093 73.349 42.9334 73.2743" stroke="#4F772D" stroke-linecap="round"/>
<path d="M43.2185 77.455C44.0982 77.455 44.978 77.455 45.8578 77.455C46.0355 77.455 46.2132 77.455 46.391 77.455C46.5678 77.455 46.4667 77.6082 46.3329 77.4814C46.0599 77.2228 45.8285 76.9195 45.6229 76.6051C45.5322 76.4664 45.4604 76.2673 45.2824 76.2673C45.0836 76.2673 44.8848 76.2673 44.6859 76.2673C44.6295 76.2673 44.23 76.2446 44.4167 76.2778C44.7793 76.3423 45.1557 76.3148 45.5226 76.3148C45.8754 76.3148 45.5814 76.4752 45.4065 76.6209C45.3544 76.6643 44.8819 77.0483 45.1399 76.9218C45.1952 76.8947 45.8244 76.6539 45.5939 76.8268C45.5006 76.8968 45.0291 77.2223 45.0291 77.0221C45.0291 76.7685 45.2881 76.5165 45.425 76.3174C45.5824 76.0884 44.1847 76.7344 44.6305 76.167C44.8599 75.875 45.1721 75.6071 45.4619 75.3752C45.7223 75.1669 45.0537 75.9048 44.8179 76.1406C44.7639 76.1946 44.4918 76.4171 44.554 76.5259C44.6008 76.6078 45.059 76.5644 45.1399 76.5497C45.2505 76.5296 44.8578 76.8729 44.7757 76.9324C44.5952 77.063 44.7267 76.9619 44.7968 76.8638C44.9627 76.6315 45.1543 76.3997 45.2851 76.1459C45.373 75.9753 45.5485 75.7705 45.5912 75.5784C45.6159 75.4676 45.4513 75.2713 45.4513 75.1271C45.4513 74.9531 45.4002 74.7701 45.5701 74.6758C45.7424 74.58 45.9398 74.5397 46.1165 74.4514C46.17 74.4246 46.3325 74.4067 46.3514 74.3406C46.3773 74.2497 46.3504 74.1732 46.391 74.0819C46.4485 73.9525 46.7294 73.7256 46.9003 73.8206C47.2886 74.0363 47.5493 74.4072 47.898 74.6784C48.2103 74.9213 48.6761 75.2696 49.0857 75.2696C49.2253 75.2696 49.4823 75.437 49.3259 75.6022C48.9848 75.9622 48.4133 76.0297 47.9482 76.0297C47.6198 76.0297 47.2277 76.091 46.9215 75.9532C46.6964 75.8519 46.1747 75.4949 46.3171 75.1746C46.5249 74.7068 47.4757 75.0363 47.4942 75.5177C47.4974 75.6022 47.5151 75.731 47.4916 75.8133C47.4195 76.0654 46.9497 75.4976 46.9267 75.4623C46.7966 75.2621 46.5021 74.8832 46.6496 74.6045C46.7495 74.4159 47.1756 74.5069 47.3068 74.5807C47.4688 74.6719 47.6027 74.753 47.7317 74.8895C47.8396 75.0038 47.8125 75.182 47.8743 75.3171C48.1641 75.9511 46.9796 76.4611 46.5704 76.6948C46.5152 76.7264 46.6916 76.7409 46.7552 76.7424C46.9824 76.7477 47.1914 76.775 47.4097 76.8374C47.6064 76.8936 47.8309 76.9499 48.0168 77.038C48.1904 77.1202 48.0158 77.1571 47.898 77.1673C47.6108 77.1923 47.2752 77.2014 46.9901 77.1647C46.702 77.1275 46.3936 76.9853 46.8871 76.9799C47.1445 76.9771 47.4893 76.9322 47.7212 77.0749C48.0201 77.2589 47.2346 77.3407 47.0957 77.3098C46.882 77.2623 47.5442 76.9752 47.5628 76.9693C48.0162 76.8267 48.4583 76.6604 48.9194 76.5418C48.9731 76.528 49.0305 76.5172 49.0831 76.5022C49.1051 76.4959 49.1185 76.4097 49.1306 76.4177C49.1782 76.4495 48.8539 76.7704 48.8244 76.811C48.7349 76.9341 48.5974 76.9799 48.8455 76.9799C48.9006 76.9799 49.3728 76.9395 49.3919 77.0063C49.4297 77.1388 48.9035 77.3705 48.9881 77.3494C49.433 77.2382 49.9935 77.245 50.3183 76.8611C50.4543 76.7004 50.5668 76.3864 50.4767 76.1723C50.3236 75.8086 50.2022 75.4389 50.2022 75.0321C50.2022 74.8481 50.189 74.6996 50.152 74.5332C50.0826 74.2211 49.9913 74.5798 49.9171 74.689C49.6551 75.0742 49.6796 75.5087 49.6796 75.9585C49.6796 76.0742 49.8262 76.408 49.6796 76.4943C49.5485 76.5713 49.456 76.7285 49.318 76.7899C49.1179 76.8788 48.9021 77.082 48.74 77.228C48.5893 77.3636 48.4212 77.5025 48.7373 77.5025C49.3775 77.5025 50.3175 77.6527 50.8937 77.2861C51.0091 77.2126 51.5438 77.213 51.5773 77.096C51.6555 76.8221 51.5265 76.4622 51.3424 76.2673C51.0416 75.9488 50.7899 75.6271 50.6403 75.2115C50.6015 75.1039 50.5822 75.03 50.5822 74.9133C50.5822 74.8455 50.6582 74.7045 50.7247 74.8209C50.8697 75.0746 51.0494 75.2997 51.1787 75.581C51.275 75.7905 51.2826 76.132 51.2447 76.3597C51.2151 76.5373 51.0068 76.735 50.9148 76.5048" stroke="#4F772D" stroke-linecap="round"/>
<path d="M46.259 75.8397C46.259 76.0028 46.3431 76.2837 46.259 76.4098" stroke="#4F772D" stroke-linecap="round"/>
<path d="M51.457 75.2907C51.457 75.1887 51.4243 75.0834 51.5958 75.1596C51.808 75.2539 51.8358 75.5011 51.9931 75.6359C52.1537 75.7736 52.1165 76.1761 52.1165 76.3667" stroke="#4F772D" stroke-linecap="round"/>
<path d="M51.5958 76.7485C52.4935 76.7485 53.3838 76.7832 54.2722 76.7832C54.6701 76.7832 55.068 76.7832 55.4658 76.7832C55.6964 76.7832 55.9635 76.7055 56.185 76.6443C56.4532 76.5704 56.7509 76.5473 57.0258 76.4978C57.4457 76.4222 57.8649 76.2973 58.2945 76.2973C58.5127 76.2973 59.0189 76.2034 59.1796 76.332C59.4626 76.5583 58.4634 76.7485 58.362 76.7485C58.188 76.7485 58.0009 76.7246 57.8356 76.7755C57.7253 76.8094 57.5619 76.8012 57.4962 76.7138" stroke="#4F772D" stroke-width="2" stroke-linecap="round"/>
<path d="M58.9193 77.2691C59.6915 77.2691 60.4435 77.2702 61.1946 77.1033C61.9561 76.934 62.7534 77.0002 63.5123 76.8005C63.8187 76.7199 64.1579 76.715 64.4726 76.6713C64.8759 76.6153 65.2904 76.5638 65.6893 76.4862C66.1759 76.3916 66.688 76.332 67.1837 76.332C67.7787 76.332 68.3732 76.2278 68.9673 76.2278C69.0727 76.2278 69.0183 76.2211 68.9423 76.2355C68.7444 76.2732 68.5602 76.3585 68.3638 76.4014C67.987 76.4837 67.6133 76.5927 67.2377 76.6713C66.9258 76.7366 66.5955 76.7485 66.2774 76.7485C65.7289 76.7485 67.3564 76.9914 67.9049 76.9914C68.4466 76.9914 69.0057 76.9772 69.54 76.895C70.063 76.8145 70.5965 76.7229 71.1231 76.6771C71.4553 76.6482 71.7797 76.5444 72.1161 76.5402C72.7323 76.5325 73.347 76.5055 73.9634 76.5055C74.5014 76.5055 75.0393 76.5055 75.5773 76.5055C76.1389 76.5055 76.6635 76.5557 77.2144 76.6617C77.6871 76.7526 78.1526 76.7485 78.6336 76.7485" stroke="#4F772D" stroke-width="2" stroke-linecap="round"/>
<path d="M78.9112 76.8526C80.1746 76.8526 81.4729 76.9411 82.7291 76.8256C83.3943 76.7644 84.0681 76.7353 84.7306 76.6617C85.4711 76.5794 86.249 76.6444 86.9944 76.6444C87.3709 76.6444 87.7488 76.6096 88.1282 76.6096C88.3256 76.6096 88.5389 76.5978 88.7337 76.5672C88.9972 76.5259 89.2628 76.548 89.5281 76.5132C90.6779 76.3624 91.8769 76.412 93.0298 76.5229C93.6225 76.5799 94.227 76.5749 94.823 76.5749C95.3234 76.5749 95.8223 76.5055 96.3174 76.5055C96.4068 76.5055 96.1351 76.5052 96.1111 76.5055C95.5992 76.5128 95.096 76.6742 94.5762 76.6791C93.8454 76.6859 93.1169 76.7138 92.3857 76.7138C92.1247 76.7138 91.8594 76.5749 91.599 76.5749C91.4248 76.5749 91.2506 76.5749 91.0765 76.5749C90.9203 76.5749 90.7641 76.5749 90.6079 76.5749C90.3447 76.5749 90.2635 76.5964 90.2261 76.2973" stroke="#4F772D" stroke-width="2" stroke-linecap="round"/>
<path d="M89.6361 77.3732C89.7106 77.3649 90.0275 77.2152 90.0526 77.165" stroke="#4F772D" stroke-width="2" stroke-linecap="round"/>
<path d="M96.1612 76.2626C97.177 76.2626 100.224 76.1931 99.2078 76.1931C98.6626 76.1931 98.145 76.4127 97.619 76.5479C97.4097 76.6018 97.1767 76.6096 96.9595 76.6096C96.8901 76.6096 96.8207 76.6096 96.7513 76.6096C96.6327 76.6096 96.9815 76.6669 97.0983 76.6868C97.6925 76.7877 98.3441 76.7832 98.9456 76.7832C99.4718 76.7832 99.9959 76.7622 100.519 76.7485C100.6 76.7464 100.669 76.7184 100.743 76.7138C100.981 76.6989 100.28 76.5945 100.045 76.5557C99.6214 76.4858 99.1523 76.5402 98.7219 76.5402C98.3767 76.5402 98.0548 76.6322 97.7154 76.6444C97.545 76.6504 97.3693 76.7358 97.2102 76.7909C97.0948 76.8308 96.965 76.8309 96.8554 76.8796C96.738 76.9318 96.5185 76.8948 96.8014 76.8449C97.2116 76.7725 97.6362 76.7288 98.0509 76.6868C99.6469 76.5252 101.257 76.5749 102.86 76.5749C103.094 76.5749 103.266 76.6992 103.485 76.7138C104.445 76.7778 101.559 76.6791 100.596 76.6791C99.8733 76.6791 99.0735 76.5872 98.3633 76.7408C97.9967 76.82 97.6051 76.8526 97.2295 76.8526C97.0876 76.8526 96.953 76.8803 96.8207 76.8873C96.7517 76.8909 96.6816 76.8873 96.6124 76.8873C96.5341 76.8873 96.5622 76.8448 96.5083 76.8179" stroke="#4F772D" stroke-width="2" stroke-linecap="round"/>
<path d="M102.617 76.5402C103.237 76.5402 103.856 76.5402 104.476 76.5402C104.766 76.5402 105.015 76.5789 105.297 76.6366C105.434 76.6647 105.561 76.7113 105.698 76.7408C105.897 76.7834 106.092 76.7995 106.308 76.8102C106.733 76.8312 107.162 76.8179 107.588 76.8179C107.937 76.8179 108.385 76.7426 108.718 76.8449C108.992 76.9291 109.326 76.8136 109.601 76.895C109.944 76.9965 110.354 76.9567 110.712 76.9567C111.871 76.9567 113.011 76.7832 114.175 76.7832" stroke="#4F772D" stroke-width="2" stroke-linecap="round"/>
<path d="M113.828 76.922C114.365 76.922 114.902 76.922 115.44 76.922C116.359 76.922 117.276 76.7883 118.189 76.6868C118.793 76.6197 119.437 76.679 120.044 76.679C120.607 76.679 121.165 76.6096 121.724 76.6096C122.766 76.6096 123.796 76.3667 124.84 76.3667C125.107 76.3667 125.377 76.332 125.648 76.332C125.784 76.332 125.967 76.2993 126.097 76.3493C126.212 76.3933 126.632 76.5178 126.67 76.3667" stroke="#4F772D" stroke-width="2" stroke-linecap="round"/>
<path d="M123.234 77.4774C124.254 77.4774 125.35 77.5831 126.359 77.4253C127.18 77.2971 128.018 77.2585 128.839 77.1322C129.271 77.0658 129.74 77.0261 130.177 77.0261C130.914 77.0261 131.643 76.8179 132.377 76.8179C132.874 76.8179 133.373 76.6227 133.87 76.6096C134.31 76.5981 134.742 76.5402 135.185 76.5402C135.738 76.5402 136.295 76.56 136.847 76.5402C137.335 76.5228 137.824 76.5055 138.316 76.5055C138.557 76.5055 138.782 76.5952 138.991 76.7061C139.097 76.7623 139.178 76.8639 139.271 76.9394C139.364 77.0147 139.529 77.0958 139.581 77.1997" stroke="#4F772D" stroke-width="2" stroke-linecap="round"/>
<path d="M130.488 71.2993C130.386 71.2993 130.229 71.2624 130.16 71.3513C130.088 71.4432 130.111 71.595 130.054 71.6984C129.949 71.8866 129.923 72.072 129.759 72.2364C129.415 72.5798 128.958 72.6275 128.926 73.2082C128.913 73.4439 128.926 73.6837 128.926 73.9197C128.926 74.2238 128.893 74.4271 128.752 74.7007C128.628 74.9417 128.436 75.1521 128.247 75.3409C128.191 75.3972 128.098 75.4364 128.093 75.5337C128.09 75.5851 128.093 75.7568 128.093 75.7419" stroke="#4F772D" stroke-width="2" stroke-linecap="round"/>
<path d="M128.197 75.8114C129.036 75.8114 129.876 75.8114 130.715 75.8114C131.334 75.8114 131.902 75.6985 132.51 75.6031C133.132 75.5056 133.746 75.3949 134.371 75.3177C135.565 75.1703 136.749 75.1172 137.95 75.1172" stroke="#4F772D" stroke-width="2" stroke-linecap="round"/>
<path d="M137.95 75.1172C137.619 74.7863 137.239 74.5078 136.924 74.1627C136.725 73.9444 136.604 73.6923 136.44 73.4512C136.293 73.235 136.118 72.9467 136.024 72.705C135.897 72.3821 135.661 72.1211 135.493 71.8199C135.369 71.596 135.249 71.3812 135.139 71.1605" stroke="#4F772D" stroke-width="2" stroke-linecap="round"/>
<path d="M134.097 70.8828C134.097 71.3923 133.958 71.8695 133.958 72.3752C133.958 72.656 133.785 72.9438 133.785 73.2256C133.785 73.3352 133.728 73.4906 133.681 73.59C133.592 73.7791 133.622 73.8842 133.403 73.9718" stroke="#4F772D" stroke-width="2" stroke-linecap="round"/>
<path d="M133.75 74.8395C133.872 74.8547 133.889 74.8968 133.889 74.718C133.889 74.5603 133.867 74.3877 133.891 74.2321C133.945 73.8807 134.216 73.3082 134.495 73.108C134.683 72.9726 134.947 72.8887 135.139 73.0694C135.317 73.2377 135.277 73.5443 135.277 73.7674C135.277 73.8925 135.339 74.1495 135.208 74.2148" stroke="#4F772D" stroke-width="2" stroke-linecap="round"/>
<path d="M133.577 73.9371C133.524 74.0429 132.842 73.9718 132.707 73.9718C132.406 73.9718 132.104 73.9718 131.803 73.9718C131.405 73.9718 131.008 73.9718 130.611 73.9718C130.352 73.9718 130.106 74.0412 129.847 74.0412C129.753 74.0412 129.516 73.9886 129.516 74.1126C129.516 74.1743 129.516 74.236 129.516 74.2977C129.516 74.3869 129.576 74.1289 129.593 74.0412C129.644 73.7741 129.773 73.6253 129.948 73.4338C130.101 73.2656 130.195 73.0394 130.349 72.8766C130.497 72.7203 130.644 72.4734 130.835 72.3675C131.036 72.2557 131.295 72.3027 131.494 72.4022C131.662 72.4862 131.833 72.557 132.007 72.6105C132.092 72.6366 132.154 72.6704 132.24 72.6895C132.43 72.7316 132.352 72.7614 132.501 72.5835" stroke="#4F772D" stroke-width="2" stroke-linecap="round"/>
<path d="M117.541 70.3622C117.541 70.6167 117.541 70.8712 117.541 71.1257C117.541 71.4477 117.643 71.7506 117.682 72.0648C117.708 72.273 117.739 72.5204 117.802 72.7204C117.863 72.9175 117.842 73.1516 117.896 73.3548C117.941 73.5232 117.958 73.7631 117.958 73.939C117.958 74.3433 117.958 74.7476 117.958 75.1519" stroke="#4F772D" stroke-width="2" stroke-linecap="round"/>
<path d="M118.166 75.4296C118.84 75.4296 119.513 75.4296 120.187 75.4296C120.792 75.4296 121.394 75.3949 121.998 75.3949C122.617 75.3949 123.231 75.3002 123.847 75.2907C124.237 75.2847 124.621 75.1866 125.011 75.1866C125.339 75.1866 125.68 75.2143 126.006 75.1847C126.205 75.1666 126.397 75.1519 126.6 75.1519C126.711 75.1519 127.086 75.2162 127.086 75.0825" stroke="#4F772D" stroke-width="2" stroke-linecap="round"/>
<path d="M127.086 74.9783C127.086 74.54 127.238 74.1289 127.293 73.6961C127.312 73.5438 127.335 73.4799 127.451 73.3644C127.585 73.2296 127.63 73.252 127.412 73.1388C127.063 72.9577 126.6 73 126.219 73C125.942 73 125.683 73.1041 125.413 73.1041C125.075 73.1041 124.748 73.1735 124.406 73.1735C124.302 73.1735 123.996 73.1814 124.096 73.2121C124.424 73.3132 124.734 73.4874 125.05 73.6209C125.661 73.8789 126.269 74.1416 126.905 74.3324C127.479 74.5045 128.107 74.5851 128.704 74.6293C128.862 74.641 129.176 74.6852 129.236 74.4731C129.318 74.1875 128.823 73.9604 128.633 73.8677C128.462 73.7848 128.298 73.7181 128.135 73.617C127.998 73.5314 127.884 73.4014 127.746 73.3201C127.46 73.152 127.076 73.2429 126.739 73.2429" stroke="#4F772D" stroke-width="2" stroke-linecap="round"/>
<path d="M124.032 74.0412C124.016 74.1648 121.275 74.0801 120.943 74.0335C120.605 73.9861 120.255 73.9588 119.936 73.8677C119.814 73.8328 119.684 73.8083 119.572 73.7462C119.46 73.6842 119.479 73.7309 119.381 73.7636" stroke="#4F772D" stroke-width="2" stroke-linecap="round"/>
<path d="M118.27 70.8828C118.27 71.0342 118.459 71.1492 118.567 71.2472C118.761 71.4229 118.941 71.6388 119.067 71.87C119.155 72.0318 119.309 72.1617 119.416 72.3135C119.501 72.4343 119.63 72.656 119.763 72.7223" stroke="#4F772D" stroke-width="2" stroke-linecap="round"/>
<path d="M120.492 73.1388C120.835 73.1388 121 72.8191 121.228 72.5912C121.354 72.4659 121.674 72.2017 121.865 72.2017C122.024 72.2017 122.544 72.1298 122.644 72.2538C122.708 72.3346 122.8 72.376 122.867 72.462C122.917 72.5255 122.991 72.7323 122.991 72.5488" stroke="#4F772D" stroke-width="2" stroke-linecap="round"/>
<path d="M122.678 72.4447C122.661 72.2853 122.347 72.0529 122.248 71.9433C122.156 71.8408 122.054 71.7089 122.054 71.577" stroke="#4F772D" stroke-width="2" stroke-linecap="round"/>
<path d="M52.199 76.2701C52.6811 76.2701 52.9246 75.9001 53.2362 75.5885C53.5573 75.2674 53.9197 75.0236 54.2438 74.6995C54.4955 74.4478 54.6683 74.2317 54.8365 73.929C54.9 73.8146 54.9773 73.5569 54.9847 73.4252C54.9939 73.2595 55.2585 73.0677 55.3403 72.9247C55.4757 72.6876 55.8817 72.665 56.0054 72.4176C56.0701 72.2883 56.0515 71.8416 56.0515 71.9862C56.0515 72.2831 56.1239 72.5657 56.2425 72.8325C56.4279 73.2496 56.6445 73.486 56.9867 73.794C57.0235 73.8271 57.2753 74.0618 57.1908 74.1002C56.9807 74.1957 56.4394 73.7269 56.3479 73.5437" stroke="#4F772D" stroke-width="2" stroke-linecap="round"/>
<path d="M54.0363 76.2109C53.4733 76.2109 55.1631 76.235 55.7255 76.2076C56.3304 76.1781 57.0541 76.1048 57.6386 75.9474C57.7612 75.9144 57.9317 75.9394 58.0338 75.8519C58.1654 75.7391 58.1289 75.1182 58.1259 74.9596C58.1061 73.8899 57.6209 72.9712 56.473 72.951C55.9773 72.9423 55.6962 73.2352 55.3436 73.5437C54.8078 74.0125 54.447 74.6718 54.7476 75.3679C55.0326 76.028 56.0699 76.1268 56.6673 76.0001C57.1303 75.9019 57.6421 75.4972 57.9448 75.144C58.1486 74.9062 57.5043 74.8672 57.3982 74.8477C56.7304 74.7246 56.0608 74.6851 55.3864 74.6237C55.3483 74.6203 54.9053 74.6066 55.0966 74.6106C55.4141 74.6172 55.7529 74.6724 56.0647 74.7291C56.3996 74.79 56.7147 74.91 57.0459 74.9794C57.2089 75.0135 57.2888 75.0572 57.0887 75.088C56.7847 75.1348 57.6219 75.147 57.6353 75.1473C58.8337 75.1733 60.0378 75.2712 61.231 75.3811C62.2756 75.4773 65.418 75.6182 64.369 75.6182C64.1941 75.6182 63.224 75.6622 63.8817 75.605C64.576 75.5446 66.6629 75.4404 65.966 75.4404C65.7243 75.4404 65.4796 75.4521 65.2383 75.4371C65.1696 75.4328 64.6776 75.3811 64.9848 75.3811C65.4688 75.3811 65.9528 75.3811 66.4369 75.3811C67.7153 75.3811 68.9673 75.8552 70.2433 75.8552C70.9516 75.8552 71.6352 75.9145 72.3375 75.9145C73.0891 75.9145 73.8251 76.033 74.57 76.033C74.9301 76.033 75.2832 76.1516 75.6467 76.1516C76.0663 76.1516 76.5077 76.1998 76.921 76.2701C77.5313 76.374 78.1679 76.3294 78.7847 76.3294C79.1879 76.3294 79.5772 76.31 79.9635 76.1812C80.2475 76.0865 80.5425 76.0752 80.8295 76.0034C81.0408 75.9506 81.2667 75.8552 81.4782 75.8552" stroke="#4F772D" stroke-width="2" stroke-linecap="round"/>
<path d="M64.5984 73.5649C64.5984 73.6931 64.5353 74.1686 64.6294 74.2156" stroke="#4F772D" stroke-width="2" stroke-linecap="round"/>
<path d="M62.8013 70.0947C62.6214 70.2645 62.4229 70.421 62.2436 70.5904C62.1115 70.7152 61.9956 70.8589 61.8735 70.9932C61.6239 71.2678 61.3817 71.4786 61.0954 71.7076C60.9248 71.8441 60.7674 71.9999 60.6014 72.1328C60.437 72.2643 60.2739 72.4224 60.0643 72.4736C59.8078 72.5363 59.5909 72.7163 59.4085 72.8988C59.2062 73.1011 59.1761 73.178 59.1761 73.472C59.1761 73.8088 59.3343 74.0372 59.6546 74.1537C60.085 74.3102 60.6115 74.2708 61.0386 74.1399C61.2249 74.0828 61.3885 73.971 61.5774 73.9213C61.7782 73.8684 61.9844 73.8429 62.1851 73.7973C62.5586 73.7124 62.9912 73.7509 63.3745 73.7509C63.4209 73.7509 63.5139 73.7811 63.5139 73.8438C63.5139 73.9527 63.2734 74.0254 63.1972 74.0366C62.7609 74.101 62.5236 73.8957 62.2573 73.5787C62.1595 73.4622 62.0964 73.3627 61.9802 73.2723C61.8078 73.1382 61.7374 72.9041 61.8821 72.7111C62.1051 72.4138 62.5793 72.4017 62.8013 72.1242C62.9031 71.997 63.1731 71.9289 63.1731 71.7369C63.1731 71.4698 63.3768 71.7354 63.4382 71.8143C63.5218 71.9218 63.5678 72.0513 63.631 72.1706C63.6725 72.2491 63.6999 72.2905 63.6999 72.1706" stroke="#4F772D" stroke-width="2" stroke-linecap="round"/>
<path d="M64.7224 74.5875C64.8858 74.5772 65.1494 74.2919 65.2491 74.1709C65.4121 73.9729 65.7366 73.7899 65.9617 73.6648C66.1327 73.5698 66.3553 73.4866 66.5057 73.3636C66.6148 73.2743 66.8829 73.1751 66.9532 73.052C67.0103 72.9521 67.2235 72.8962 67.3251 72.8454C67.4761 72.7699 67.6419 72.6902 67.7743 72.5872C67.8751 72.5088 67.9252 72.3899 68.0136 72.3015C68.0572 72.2579 68.1155 72.2469 68.1324 72.1879C68.14 72.1613 68.2074 72.0858 68.2236 72.0777" stroke="#4F772D" stroke-width="2" stroke-linecap="round"/>
<path d="M68.4405 72.4495C68.4615 72.6593 68.7345 72.9097 68.8433 73.0761C68.9642 73.261 69.1172 73.4073 69.222 73.596C69.3092 73.7528 69.3901 73.9011 69.4699 74.0607C69.5505 74.222 69.6435 74.4272 69.7728 74.5565" stroke="#4F772D" stroke-width="2" stroke-linecap="round"/>
<path d="M66.1786 74.4325H67.8828" stroke="#4F772D" stroke-width="2" stroke-linecap="round"/>
<path d="M70.2066 74.9283C70.2872 74.8697 70.4465 74.9472 70.5096 74.8904C70.6984 74.7205 70.7683 74.4178 70.9296 74.2242C71.1511 73.9584 71.2038 73.6083 71.3686 73.3154C71.5695 72.9582 71.7457 72.5995 71.8953 72.2171C71.9969 71.9573 72.104 71.8608 72.3893 71.8608C73.073 71.8608 73.5927 72.3985 74.2415 72.5494C74.7815 72.6749 75.0537 73.1216 75.3329 73.5615C75.5486 73.9015 75.6956 74.283 75.925 74.6167C76.0506 74.7994 76.2454 74.9287 76.3571 75.1297C76.3765 75.1647 76.489 75.3559 76.4345 75.3862C76.3153 75.4524 76.1297 75.4569 76.0008 75.4688C75.6797 75.4984 75.3574 75.517 75.0351 75.517C74.5642 75.517 74.1651 75.528 73.732 75.3311C73.4695 75.2118 73.1959 75.0782 72.9677 74.9007C72.7587 74.7382 72.3859 74.6126 72.2585 74.3706C72.1156 74.0991 72.5455 73.9864 72.6992 73.9299C72.9599 73.834 73.3773 73.7337 73.639 73.8817C73.8173 73.9825 74.1107 74.1692 74.1107 74.4015" stroke="#4F772D" stroke-width="2" stroke-linecap="round"/>
<path d="M76.9923 75.1452C77.4274 75.1452 77.8686 75.1525 78.2936 75.1761C78.413 75.1828 78.4921 75.0224 78.5656 74.9489C78.699 74.8155 78.8239 74.6804 78.9305 74.522C79.0823 74.2965 79.2173 74.0426 79.4022 73.8507C79.5352 73.7126 79.6745 73.5317 79.7809 73.3722C79.8669 73.2431 79.9314 73.0679 80.0356 72.9521C80.0972 72.8838 80.1232 72.758 80.2147 72.7043C80.3203 72.6421 80.4343 72.6354 80.5555 72.6354" stroke="#4F772D" stroke-width="2" stroke-linecap="round"/>
<path d="M80.7104 75.6719C80.7104 75.3323 80.6794 74.9992 80.6794 74.6632C80.6794 74.3995 80.6521 74.1161 80.5073 73.8886C80.4323 73.7707 80.4006 73.5953 80.4006 73.4565C80.4006 73.3713 80.3855 73.1732 80.4384 73.1071C80.5608 72.9541 80.4935 72.5798 80.4935 72.3875" stroke="#4F772D" stroke-width="2" stroke-linecap="round"/>
<path d="M78.0767 75.6719C78.2265 75.6719 78.3762 75.6719 78.526 75.6719C78.9482 75.6719 79.3716 75.5322 79.7946 75.4929C80.3869 75.4378 81.0761 75.6114 81.6434 75.4223C82.0024 75.3026 82.3648 75.0832 82.7485 75.0832C83.1433 75.0832 83.5419 75.1142 83.9311 75.1142C84.6382 75.1142 85.3424 75.2691 86.0501 75.2691C86.6523 75.2691 87.2575 75.2557 87.8541 75.2381C88.1239 75.2302 88.3834 75.2071 88.658 75.2071C88.8554 75.2071 89.1428 75.2633 89.3241 75.2002C89.4955 75.1406 89.7379 75.0832 89.9128 75.0832" stroke="#4F772D" stroke-width="2" stroke-linecap="round"/>
<path d="M82.7244 74.1227C82.8581 74.1227 82.9936 74.1297 83.1272 74.1227C83.2299 74.1173 83.3943 73.8133 83.4474 73.7268C83.5931 73.4894 83.7341 73.2889 83.95 73.1122C84.0658 73.0176 84.1387 72.8791 84.2272 72.7611C84.2925 72.674 84.4003 72.6156 84.4268 72.496C84.4432 72.4226 84.4595 72.3549 84.4595 72.2791C84.4595 72.241 84.4595 72.0117 84.4595 72.1087" stroke="#4F772D" stroke-width="2" stroke-linecap="round"/>
<path d="M84.9243 74.5874C84.9243 74.3143 84.9243 74.0412 84.9243 73.7681C84.9243 73.6288 84.9468 73.4666 84.9174 73.3308C84.8986 73.2436 84.8624 73.1426 84.8624 73.0537C84.8624 72.8072 84.8149 72.4605 84.7453 72.2257C84.7281 72.1677 84.5525 71.7588 84.5525 72.0157" stroke="#4F772D" stroke-width="2" stroke-linecap="round"/>
<path d="M86.7524 75.3621C86.729 74.9644 86.3806 74.6406 86.3806 74.2466C86.3806 74.0662 86.1835 73.9421 86.1017 73.7991C86.0511 73.7104 86.0073 73.6247 85.9468 73.534" stroke="#4F772D" stroke-width="2" stroke-linecap="round"/>
<path d="M88.7354 76.0747C88.7624 76.2902 88.7664 75.6412 88.7664 75.424C88.7664 75.2183 88.7174 74.96 88.5874 74.7975C88.4911 74.6771 88.4566 74.4611 88.4566 74.3086C88.4566 74.0936 88.5495 73.9401 88.5495 73.7354C88.5495 73.5556 88.5171 73.4354 88.4566 73.2689C88.427 73.1877 88.3836 73.105 88.3653 73.0227C88.3539 72.9713 88.3601 72.8557 88.3171 72.8213C88.2228 72.7459 88.2685 72.4805 88.238 72.3738C88.2003 72.242 88.1467 72.0355 88.1467 71.8918" stroke="#4F772D" stroke-width="2" stroke-linecap="round"/>
<path d="M89.603 75.3621C89.6038 75.3675 90.1087 75.2202 90.1538 75.1073C90.1974 74.9983 90.2572 74.8987 90.3002 74.7889C90.363 74.6282 90.484 74.4093 90.5016 74.2397C90.5168 74.092 90.5516 73.8619 90.6565 73.7509C90.7432 73.659 90.8509 73.5949 90.9508 73.5185C91.0945 73.4086 91.2029 73.2523 91.345 73.1484C91.4932 73.0401 91.6095 72.8472 91.6721 72.6733C91.7148 72.5545 91.8029 72.424 91.8029 72.2946C91.8029 72.1764 92.0268 72.1656 92.1128 72.2085C92.2408 72.2725 92.3245 72.416 92.4536 72.4805" stroke="#4F772D" stroke-width="2" stroke-linecap="round"/>
<path d="M92.6085 72.7284C92.6751 73.0949 93.0462 73.3998 93.2557 73.6854C93.4748 73.9842 93.7078 74.2829 93.9649 74.5496C94.1677 74.7598 94.4011 74.9604 94.6294 75.1452C94.7271 75.2243 94.8607 75.3329 94.9014 75.455" stroke="#4F772D" stroke-width="2" stroke-linecap="round"/>
<path d="M90.7494 75.8268C90.9443 75.632 91.0063 75.4844 91.2934 75.424C91.5116 75.3781 91.7387 75.3311 91.9613 75.3311C92.2273 75.3311 92.5587 75.2792 92.8099 75.3775C92.8734 75.4024 93.0635 75.552 92.9597 75.4034C92.6769 74.9984 92.3657 74.5867 91.9854 74.2673C91.802 74.1133 91.9314 74.3813 91.9716 74.4773C91.9946 74.5322 92.2097 74.9512 92.2367 74.8973" stroke="#4F772D" stroke-width="2" stroke-linecap="round"/>
<path d="M98.3716 74.4325C98.3716 74.5668 98.3716 74.7011 98.3716 74.8353C98.3716 74.9711 98.4336 75.1064 98.4336 75.2381" stroke="#4F772D" stroke-width="2" stroke-linecap="round"/>
<path d="M96.1717 71.7059C96.1717 72.0031 96.1717 72.3003 96.1717 72.5975C96.1717 72.9075 96.3821 73.2803 96.4885 73.5615C96.7084 74.1427 97.0393 74.6739 97.0393 75.3001" stroke="#4F772D" stroke-width="2" stroke-linecap="round"/>
<path d="M94.0028 75.2691C94.2451 75.2691 94.5055 75.2935 94.7447 75.2536C95.1881 75.1797 95.6007 74.853 95.9721 74.6184C96.148 74.5073 96.303 74.3585 96.4816 74.2535C96.5725 74.2 96.6488 74.0917 96.7673 74.0917C96.8809 74.0917 96.9946 74.0917 97.1082 74.0917C97.2482 74.0917 97.3527 74.1846 97.4731 74.1846" stroke="#4F772D" stroke-width="2" stroke-linecap="round"/>
<path d="M117.179 71.8918C117.179 72.1448 117.179 72.3979 117.179 72.6509C117.179 72.842 116.95 72.9417 116.931 73.1002C116.917 73.2228 116.783 73.4204 116.713 73.5219C116.592 73.6955 116.48 73.8645 116.436 74.0745C116.396 74.2614 116.305 74.4279 116.281 74.6219C116.257 74.8084 116.267 75.0293 116.203 75.2071C116.138 75.3908 115.664 75.5221 115.489 75.5721C115.149 75.6693 114.813 75.6719 114.46 75.6719C114.269 75.6719 114.059 75.6409 114.411 75.6409C115.159 75.6409 115.87 75.7962 116.603 75.9336C117.069 76.0211 117.524 76.1367 117.999 76.1367C118.2 76.1367 117.598 76.1017 117.4 76.0678C116.836 75.9715 116.255 75.9015 115.716 75.7029C115.367 75.5743 114.935 75.4716 114.625 75.2622C114.494 75.1739 114.177 75.0341 114.119 74.8732C113.927 74.3411 114.957 74.5312 115.208 74.4308C115.235 74.4203 115.06 74.3964 115.06 74.3964C114.863 74.3682 114.687 74.2784 114.501 74.2156C114.359 74.1678 114.132 74.0382 113.988 74.0297C113.728 74.0144 113.477 73.9753 113.213 73.9678C113.022 73.9623 112.823 73.8553 112.64 73.8146C112.581 73.8015 112.18 73.7245 112.16 73.6682C112.052 73.3714 112.098 72.9966 112.098 72.6819C112.098 72.5359 112.067 72.409 112.067 72.2636C112.067 72.1865 112.074 72.1172 112.043 72.0467C111.992 71.9319 112.001 71.952 111.85 71.9916C111.486 72.0875 111.072 72.209 110.748 72.403C110.645 72.4649 110.503 72.4866 110.409 72.5597C110.357 72.6005 110.286 72.6541 110.223 72.6681C110.071 72.702 109.919 72.8428 109.774 72.9074C109.589 72.9898 109.325 73.0382 109.123 73.0382C108.815 73.0382 108.479 73.1156 108.381 72.7731C108.355 72.6802 108.303 72.5049 108.232 72.4426C108.225 72.4365 108.225 72.5682 108.225 72.5889C108.225 72.6809 108.229 72.7625 108.249 72.8523C108.276 72.9762 108.259 73.1277 108.256 73.2551C108.251 73.4336 108.123 73.6064 108.025 73.7491C107.816 74.0538 107.584 74.3573 107.34 74.6339C107.272 74.7109 107.194 74.7781 107.133 74.8594C106.994 75.0454 107.258 75.3684 107.337 75.5204C107.429 75.6986 107.419 75.8403 107.419 76.0437" stroke="#4F772D" stroke-width="2" stroke-linecap="round"/>
<path d="M107.853 75.5789C107.878 75.5029 108.07 75.4667 108.135 75.4481C108.37 75.3811 108.592 75.2759 108.831 75.2243C109.239 75.1363 109.637 75.0273 110.053 74.9834C110.446 74.9417 110.804 74.8194 111.182 74.7114C111.533 74.6112 111.893 74.5371 112.232 74.4015C112.351 74.354 112.663 74.2776 112.37 74.2776C112.038 74.2776 111.71 74.2636 111.378 74.2466C111.067 74.2306 110.733 74.2528 110.425 74.2087C110.026 74.1518 109.659 74.0297 109.249 74.0297C109.196 74.0297 109.1 74.0113 109.049 74.0314C109.048 74.0318 109.187 74.1657 109.202 74.1778C109.455 74.3728 109.787 74.454 110.077 74.5857C110.397 74.731 110.732 74.8583 111.044 75.0143C111.173 75.0787 111.292 75.1027 111.292 75.2536C111.292 75.4096 111.123 75.5068 110.982 75.5411C110.892 75.563 110.782 75.5503 110.69 75.548C110.61 75.5459 110.31 75.486 110.555 75.486C111.003 75.486 111.449 75.5952 111.888 75.6702C112.354 75.7499 112.826 75.8184 113.296 75.875C113.402 75.8878 113.924 75.8546 113.988 75.9817" stroke="#4F772D" stroke-width="2" stroke-linecap="round"/>
<path d="M100.634 70.9932C100.634 71.6026 100.634 72.212 100.634 72.8213C100.634 73.0072 100.634 73.1931 100.634 73.379C100.634 73.4914 100.665 73.6653 100.618 73.7681C100.566 73.8816 100.649 74.3473 100.541 74.4015" stroke="#4F772D" stroke-width="2" stroke-linecap="round"/>
<path d="M99.704 73.1002C99.704 73.4158 99.704 73.7314 99.704 74.0469C99.704 74.3968 99.8787 74.6487 100.083 74.9283C100.292 75.2152 100.564 75.4125 100.819 75.6409C101.008 75.8096 101.208 75.7595 101.253 75.486" stroke="#4F772D" stroke-width="2" stroke-linecap="round"/>
<path d="M101.253 75.486C102.4 75.486 103.546 75.486 104.693 75.486C105.048 75.486 105.398 75.4729 105.749 75.5239C105.931 75.5503 106.12 75.579 106.304 75.579C106.377 75.579 106.459 75.6449 106.459 75.548" stroke="#4F772D" stroke-width="2" stroke-linecap="round"/>
<path d="M106.273 74.8043C106.264 74.7356 105.649 74.7734 105.591 74.7734C105.183 74.7734 104.662 74.5326 104.338 74.2948C104.136 74.1467 103.859 74.0586 103.639 73.9609C103.416 73.8617 103.236 73.7508 103.066 73.5804C102.927 73.4413 102.769 73.3071 102.672 73.1312C102.571 72.95 102.38 72.8186 102.307 72.6182C102.262 72.4951 102.113 72.301 102.021 72.2085C101.975 72.1627 101.928 72.1087 101.857 72.1087C101.788 72.1087 101.764 72.4165 101.749 72.4943C101.728 72.6069 101.706 72.7495 101.663 72.8523C101.616 72.9627 101.657 73.1051 101.61 73.2103C101.531 73.3839 101.594 73.7103 101.594 73.9058C101.594 74.22 101.772 74.4072 102.061 74.5083C102.238 74.5704 102.5 74.5313 102.685 74.5255C102.836 74.5208 102.964 74.4416 103.102 74.3912C103.25 74.337 103.404 74.3031 103.553 74.2466C104.045 74.0597 104.622 74.0154 105.14 73.966C105.258 73.9548 105.369 73.9368 105.491 73.9368C105.649 73.9368 105.426 73.8773 105.374 73.8748C105.027 73.8582 104.609 73.8045 104.274 73.7027C104.097 73.6487 103.734 73.6319 103.639 73.441" stroke="#4F772D" stroke-width="2" stroke-linecap="round"/>
<path d="M102.679 72.4185C102.865 72.4185 103.076 72.637 103.205 72.7593C103.313 72.8608 103.422 72.9864 103.546 73.0692" stroke="#4F772D" stroke-width="2" stroke-linecap="round"/>
<path d="M82 12L89 21.5L77.6699 20.25L82 12Z" fill="white"/>
<path d="M78.1739 20.1824C78.314 20.198 78.4399 20.2879 78.5828 20.2879C78.7788 20.2879 79.016 20.3143 79.2276 20.3143C79.6998 20.3143 80.1334 20.4462 80.6066 20.4462C80.8201 20.4462 81.0336 20.4462 81.2471 20.4462C81.4922 20.4462 81.7847 20.4053 82.0106 20.5107C82.4011 20.6929 82.8645 20.7891 83.2929 20.7891C83.8547 20.7891 84.4708 20.7842 85.0266 20.9005C85.256 20.9485 85.4789 21.0364 85.7066 21.0778C85.7729 21.0899 85.8943 21.0671 85.9499 21.1115C86.0145 21.1632 86.1889 21.2112 86.2723 21.2112C86.7237 21.2112 87.224 21.2075 87.6587 21.3226C87.8701 21.3785 88.0519 21.475 88.2771 21.475C88.4521 21.475 88.623 21.5014 88.8047 21.5014" stroke="white" stroke-width="0.5" stroke-linecap="round"/>
</g>
<defs>
<filter id="filter0_i_2_444" x="0" y="0" width="156" height="104" filterUnits="userSpaceOnUse" color-interpolation-filters="sRGB">
<feFlood flood-opacity="0" result="BackgroundImageFix"/>
<feBlend mode="normal" in="SourceGraphic" in2="BackgroundImageFix" result="shape"/>
<feColorMatrix in="SourceAlpha" type="matrix" values="0 0 0 0 0 0 0 0 0 0 0 0 0 0 0 0 0 0 127 0" result="hardAlpha"/>
<feOffset dy="4"/>
<feGaussianBlur stdDeviation="2"/>
<feComposite in2="hardAlpha" operator="arithmetic" k2="-1" k3="1"/>
<feColorMatrix type="matrix" values="0 0 0 0 0 0 0 0 0 0 0 0 0 0 0 0 0 0 0.25 0"/>
<feBlend mode="normal" in2="shape" result="effect1_innerShadow_2_444"/>
</filter>
<filter id="filter1_d_2_444" x="19.5" y="10.5" width="126" height="76" filterUnits="userSpaceOnUse" color-interpolation-filters="sRGB">
<feFlood flood-opacity="0" result="BackgroundImageFix"/>
<feColorMatrix in="SourceAlpha" type="matrix" values="0 0 0 0 0 0 0 0 0 0 0 0 0 0 0 0 0 0 127 0" result="hardAlpha"/>
<feOffset dy="4"/>
<feGaussianBlur stdDeviation="2"/>
<feComposite in2="hardAlpha" operator="out"/>
<feColorMatrix type="matrix" values="0 0 0 0 0 0 0 0 0 0 0 0 0 0 0 0 0 0 0.25 0"/>
<feBlend mode="normal" in2="BackgroundImageFix" result="effect1_dropShadow_2_444"/>
<feBlend mode="normal" in="SourceGraphic" in2="effect1_dropShadow_2_444" result="shape"/>
</filter>
</defs>
</svg>
